Coordinates

Units are S.I. units (second, meters, Newtons, ...)
If the header above contains a line with 'inDegrees', this indicates whether rotational values are in degrees (yes) or radians (no).

inDegrees=no
nColumns=21
nRows=30
DataType=double
version=3
OpenSimVersion=4.6-2026-03-31-d6972f9e6
endheader
time	/jointset/ground_pelvis/pelvis_tilt/value	/jointset/ground_pelvis/pelvis_list/value	/jointset/ground_pelvis/pelvis_rotation/value	/jointset/ground_pelvis/pelvis_tx/value	/jointset/ground_pelvis/pelvis_ty/value	/jointset/ground_pelvis/pelvis_tz/value	/jointset/hip_r/hip_flexion_r/value	/jointset/hip_r/hip_adduction_r/value	/jointset/hip_r/hip_rotation_r/value	/jointset/walker_knee_r/knee_angle_r/value	/jointset/patellofemoral_r/knee_angle_r_beta/value	/jointset/ankle_r/ankle_angle_r/value	/jointset/subtalar_r/subtalar_angle_r/value	/jointset/hip_l/hip_flexion_l/value	/jointset/hip_l/hip_adduction_l/value	/jointset/hip_l/hip_rotation_l/value	/jointset/walker_knee_l/knee_angle_l/value	/jointset/patellofemoral_l/knee_angle_l_beta/value	/jointset/ankle_l/ankle_angle_l/value	/jointset/subtalar_l/subtalar_angle_l/value
139.996	0.06605163246162166	-0.01852510235518704	1.414430534128633	0.9005354700000633	1.000174250000068	-1.057695230000056	0.04927271020643914	0.1199175654540431	0.08453296824235439	0.6207879985624646	0.6207880000000503	0.239358288281419	-0.5367821860767186	0.4418342620545269	-0.146752032897653	-0.00972315962422393	1.496316266897645	1.496316270000084	-0.2333894297912022	-0.4545384379325109
140	0.05925148031091972	-0.02006770476567894	1.41943297183818	0.9004042633499826	1.002717498825058	-1.058334659777692	0.03389034192747239	0.1105287711747339	0.08176511776490493	0.6055305067718856	0.6055305080077008	0.2198964681312052	-0.534417439160516	0.4514847526065879	-0.1389165206106319	-0.007911532866314503	1.465376783731187	1.465376786504586	-0.2295104132503549	-0.4642127059318964
140.004	0.05244414086506918	-0.02159177101717297	1.424401414763304	0.9002730933482667	1.005260451966846	-1.058982470706629	0.01852168967328604	0.1011322607403971	0.07890401491573133	0.5902758836767101	0.5902758847198715	0.2003028667678342	-0.5319346376166977	0.4609710905286334	-0.1310781145764169	-0.006181063674873531	1.434241804559967	1.434241807013555	-0.2256841529172199	-0.4737817857294673
140.008	0.04562441781994461	-0.02308043843228831	1.429302899459893	0.9001419324137746	1.007802738488904	-1.059646868440479	0.003182080260928129	0.09172227381907108	0.07585836046516792	0.5750293149308817	0.575029315798528	0.1804493439000323	-0.5292184397394515	0.4701358913673422	-0.1232356476115441	-0.004609316831889991	1.402721998237099	1.402722000388738	-0.2219550220386317	-0.4831389883878708
140.012	0.0387909191842812	-0.02451986866819724	1.434106520853338	0.9000106312510753	1.010343842351865	-1.060335724170887	-0.01211038491196811	0.08229679994936798	0.0725406917501039	0.5598001560772173	0.5598001567926481	0.1602146345255322	-0.5261593790964587	0.4788345180051588	-0.1153911903347087	-0.003266915721780088	1.370639896947002	1.370639898821949	-0.2183517950439254	-0.4921748394320237
140.016	0.0319475643985031	-0.02590017287449731	1.438784394686199	0.8998788744719424	1.012883027094615	-1.061056438484068	-0.02733423122293403	0.07285910351621698	0.06886918342545609	0.5446031358991409	0.5446031364896344	0.1394869990611345	-0.5226575567692245	0.4869398320544479	-0.1075512285317942	-0.002214632430486657	1.337834833681014	1.337834835310023	-0.2148823784342543	-0.500776082637831
140.02	0.02510473629313312	-0.02721608395213821	1.443312432883431	0.8997461553478628	1.015419225558899	-1.061815821705725	-0.04246429129880495	0.06341895824973945	0.06476941614974405	0.5294590711689734	0.5294590716635925	0.1181664087403404	-0.5186264637284161	0.494345737662383	-0.0997275323817006	-0.001501044483827351	1.304167052005247	1.304167053422221	-0.2115307378544617	-0.5088248709632402
140.024	0.01828005906897798	-0.0284675556404952	1.447670843436391	0.8996117706082561	1.01795087352656	-1.062619981170027	-0.05747134767641006	0.05399357660106995	0.06017612614664238	0.5143953642777863	0.5143953647052559	0.09616646986742701	-0.5139964495535092	0.5009696820816685	-0.09193775992876481	-0.001160809396032479	1.269521044908962	1.26952104614858	-0.2082559585464749	-0.5161981023117442
140.028	0.01149875461751444	-0.02966023256339229	1.451844377614514	0.8994748280127485	1.020475698203383	-1.063474211905403	-0.07232173296278287	0.04460814645496925	0.05503483944703597	0.4994464213706905	0.4994464217573209	0.07341614646429834	-0.5087176899986834	0.506754109440529	-0.08420572551292903	-0.001213540296953594	1.233808177111523	1.233808178207234	-0.2049933305646557	-0.5227671345031413
140.032	0.004793521584579043	-0.03080563406969979	1.455822408305134	0.899334256902604	1.022990491235835	-1.06438289284567	-0.08697704967494234	0.03529586480196862	0.04930324414398247	0.4846540067684802	0.484654007136135	0.04986124422605829	-0.5027627512152378	0.5116668049828356	-0.07656122216668892	-0.001663241676323616	1.19696862651215	1.196968627494628	-0.2016573062749851	-0.5283982649377872
140.036	-0.001796070398184393	-0.03192102315940983	1.459598901579992	0.8991888160689332	1.025490889885893	-1.065349391754702	-0.1013940513916026	0.02609742699471212	0.04295219340284125	0.470067552943241	0.4700675533075035	0.02546567401258289	-0.4961287896626333	0.5157002363991502	-0.0690393732043097	-0.00249827011813156	1.158972700866116	1.158972701762004	-0.1981460180537742	-0.5329542565232703
140.04	-0.008224595390753625	-0.03302908659338389	1.463172294353405	0.899037098788124	1.027971177177728	-1.066375979575133	-0.1155245547475733	0.017060041805043	0.03596633152207758	0.4557445061741496	0.4557445065429933	0.0002125878760701417	-0.4888392467021871	0.5188701829845721	-0.0616796192963873	-0.003691787469486168	1.119821617823801	1.119821618654607	-0.1943468714002263	-0.5362969902469421
140.044	-0.01444207171097501	-0.03415754161514957	1.466545268838851	0.8988775377250033	1.030424111413468	-1.067463753416646	-0.1293152737694287	0.008236101555509004	0.02834441669198891	0.4417507826783206	0.4417507830515498	-0.0258945408531218	-0.4809448220151473	0.5212139276470207	-0.05452450412221457	-0.005202680160483435	1.07954782489343	1.079547825674692	-0.1901426760911901	-0.5382911951997844
140.048	-0.02039545792757016	-0.03533860264688697	1.469724434945607	0.8987084119301352	1.032840809569945	-1.068612571072784	-0.1427077087157413	-0.0003184046359299922	0.02009940521149822	0.4281612854534682	0.4281612858229767	-0.05283092763325231	-0.4725236230585926	0.5227880614962213	-0.04761835547332834	-0.006976939399899152	1.038214866360559	1.038214867101483	-0.1854178837987523	-0.538809200152901
140.052	-0.02603025845077506	-0.03660819096754413	1.472719936927084	0.8985278584284657	1.035210710741779	-1.069821001965617	-0.1556382994900441	-0.0085456498746239	0.01125835876215538	0.4150603544178607	0.4150603547686288	-0.08054966181023476	-0.4636804691251119	0.5236658709166235	-0.04100593835750491	-0.008949501809163943	0.9959167691822132	0.9959167698859355	-0.1800646151323789	-0.5377366167749245
140.056	-0.03129210722577425	-0.03800495883633469	1.475544970978169	0.8983338927073445	1.037521624968437	-1.071086295468745	-0.1680388214390667	-0.01638774662002362	0.001862278750834272	0.4025420879052974	0.4025420882170356	-0.1089810988441589	-0.4545452551480555	0.5239344728849689	-0.03473122453365297	-0.01104651641173206	0.9527769541453713	0.9527769548097398	-0.1739881654370694	-0.5349786702548461
140.06	-0.03612826855730043	-0.0395692218123817	1.478215213569083	0.8981244406248154	1.039759865443902	-1.072404368000493	-0.1798369650652988	-0.02378845293151179	-0.00803410226982384	0.3907104798314924	0.3907104800807874	-0.1380324976981012	-0.4452703183791276	0.5236918648408466	-0.02883633201674416	-0.01318797045707499	0.9089466630478971	0.9089466636666226	-0.1671116915817804	-0.5304666843623967
140.064	-0.04048913866648379	-0.04134164984110301	1.480748215466485	0.8978973798597657	1.041910477503837	-1.07376981721142	-0.1909573352409507	-0.03069488523621387	-0.01836269711545666	0.3796791988079851	0.3796791989706849	-0.1675880493383	-0.436026946387538	0.5230437472658953	-0.02336048085013611	-0.01529060523791703	0.8646028173955042	0.8646028179595889	-0.15937988620341	-0.5241641791302876
140.068	-0.04432981029578287	-0.04336152873170081	1.48316281947683	0.8976505878259967	1.043957575223932	-1.075175972216057	-0.2013231467638845	-0.03705929719012757	-0.02904272934155171	0.3695708278881967	0.3695708279417672	-0.1975094692625945	-0.4270012040179132	0.522099916879044	-0.01833882688440491	-0.01727104483216432	0.8199452422903184	0.8199452427898237	-0.1507615595661805	-0.5160721092860148
140.072	-0.04761161066543726	-0.04566468222348775	1.485478610795656	0.8973819941019665	1.045884766896944	-1.076614981073228	-0.2108585347279549	-0.0428408099953573	-0.03998167986982708	0.3605155447517499	0.3605155446774893	-0.2276372263699214	-0.4183891245906047	0.5209703497886017	-0.01380123980577354	-0.01904901803981974	0.7751933112567909	0.7751933116828953	-0.1412511191650551	-0.5062328514804768
140.076	-0.05030347410055681	-0.0482813213688424	1.487715386453895	0.8970896350968701	1.04767563149288	-1.078077931906305	-0.2194911634575756	-0.04800692084215757	-0.05107647775457098	0.3526493350130226	0.3526493347981718	-0.2577924092106364	-0.4103912823042802	0.5197612977970263	-0.009771168068455386	-0.02055051953696568	0.7305821451412968	0.7305821454882715	-0.1308689895647752	-0.4947326080313461
140.08	-0.05238307633147812	-0.05123399786965876	1.489892643920726	0.8967717080092275	1.049314213868491	-1.079555005788461	-0.2271549205056547	-0.05253469483605397	-0.06221496053012601	0.346111802125675	0.3461118017654463	-0.2877792479934591	-0.4032068712632405	0.5185716118973087	-0.006264658276237425	-0.02171076398215975	0.6863584937011951	0.6863584939678067	-0.1196610574823889	-0.4817019570085613
140.084	-0.0538376970491978	-0.05453570075561571	1.492029094672843	0.8964266223577442	1.050785517516745	-1.081035661825555	-0.2337926510305715	-0.05641160103773019	-0.07327764409147849	0.3410435754132216	0.3410435749125622	-0.3173883334256078	-0.3970275007681797	0.5174893462265298	-0.003289556127779678	-0.02247681755948172	0.6427764213992634	0.6427764215893554	-0.1076972413155301	-0.4673143582045311
140.088	-0.05466477141759062	-0.05818809372053841	1.494142201301886	0.8960530489200197	1.052075977476975	-1.082508854263089	-0.2393589351194044	-0.05963595706573296	-0.08413980756842354	0.3375833125189008	0.3375833118935984	-0.3464005533440371	-0.3920309411556885	0.516588649853129	-0.0008449369469122016	-0.02280981595172704	0.6000929352405844	0.600092935362889	-0.09506928094548943	-0.4517825328791345
140.092	-0.05487209882953357	-0.06217992376607821	1.496247738260942	0.8956499655202494	1.053173894429017	-1.083963278757334	-0.2438228536159197	-0.06221696104135056	-0.09467388467548872	0.3358643484916364	0.3358643477684056	-0.3745917220266885	-0.3883750687107392	0.5159269953574956	0.001079183783864507	-0.02268668538179339	0.5585637049861888	0.5585637050534763	-0.08188785726489541	-0.4353527895799448
140.096	-0.05447770565303069	-0.066485684017242	1.498359387943618	0.8952166976239624	1.054069808839856	-1.085387641648654	-0.2471706039917418	-0.06417432309276297	-0.1047521570820386	0.3360111200263625	0.3360111192418013	-0.4017378227323936	-0.3861922681797068	0.5155428543957351	0.002501837127712395	-0.02210128398249837	0.5184390220281844	0.5184390220557763	-0.0682791830980591	-0.4182975519571237
140.1	-0.05350938523447453	-0.07106464119165064	1.500488392899419	0.8947529507934271	1.05475679484349	-1.08677094300771	-0.2494077811199811	-0.06553753953269213	-0.1142497287553654	0.3381355453213198	0.3381355445198682	-0.4276207159318944	-0.3855845419045414	0.5154539605908258	0.00345079055517938	-0.02106488264461097	0.479960123296322	0.4799601233000834	-0.05438124236143949	-0.4009065233840805
140.104	-0.05200395976579303	-0.075860345403504	1.50264328918414	0.8942588312423999	1.055230656689121	-1.088102761891074	-0.2505611251045772	-0.06634487899189277	-0.1230477230884552	0.3423335611428739	0.3423335603739821	-0.4520340820055308	-0.3866195428434638	0.5156563035514461	0.00396197270847591	-0.01960590612077547	0.4433559736659037	0.4433559736601151	-0.04033989325635465	-0.3834770782945215
140.108	-0.05000632573969391	-0.08080073871026645	1.504829746622132	0.893734850074729	1.055490014986492	-1.089373530893073	-0.2506795402172809	-0.06664217112954585	-0.1310366085916159	0.3486820210273768	0.3486820203420908	-0.4747892996015651	-0.3893276998116688	0.5161239888268987	0.00407868716041384	-0.01776886751151894	0.4088405612076119	0.4088405612032792	-0.02630507283157551	-0.3663045622979879
140.112	-0.04756835118802429	-0.08579894971270342	1.507050534408819	0.8931819083695844	1.055536276913216	-1.090574786258638	-0.2498342237921647	-0.06648149659821148	-0.1381195327383616	0.3572361425635374	0.3572361420107601	-0.4957209533005047	-0.3937005666411829	0.5168100579651682	0.003850674775763679	-0.01561247917696088	0.3766107242384831	0.3766107242424844	-0.01242729618105916	-0.3496731522266877
